<?xml version="1.0" encoding="UTF-8" standalone="no"?>
<!-- Generator: Adobe Illustrator 26.2.1, SVG Export Plug-In . SVG Version: 6.00 Build 0)  -->

<svg
   version="1.1"
   id="Layer_1"
   x="0px"
   y="0px"
   viewBox="0 0 286.10001 48.700001"
   xml:space="preserve"
   width="286.10001"
   height="48.700001"
   xmlns="http://www.w3.org/2000/svg"
   xmlns:svg="http://www.w3.org/2000/svg"><defs
   id="defs29" />
<style
   type="text/css"
   id="style1">
	.st0{fill:#E87500;}
</style>
<path
   class="st0"
   d="m 83,11.3 -0.5,0.2 C 82.3,11 81.9,10.8 81,10.8 h -3 v 9.9 c 0,0.6 0.3,0.8 0.8,0.8 V 22 h -4.3 v -0.5 c 0.5,0 0.8,-0.2 0.8,-0.8 v -9.9 h -2.9 c -0.9,0 -1.3,0.2 -1.5,0.7 L 70.4,11.3 71,8.4 c 0.3,0.1 0.6,0.1 1.2,0.1 h 9.2 c 0.3,0 0.7,0 1,-0.1 z"
   id="path1" />
<path
   class="st0"
   d="m 97.5,22.1 h -4.3 v -0.5 c 0.5,0 0.7,-0.2 0.7,-0.8 v -4.7 h -5.4 v 4.7 c 0,0.5 0.3,0.8 0.7,0.8 v 0.5 h -4.3 v -0.5 c 0.5,0 0.7,-0.2 0.7,-0.8 V 9.8 C 85.6,9.3 85.3,9.1 84.8,9.1 V 8.6 h 4.3 v 0.5 c -0.5,0 -0.7,0.2 -0.7,0.7 v 4 h 5.4 v -4 C 93.8,9.2 93.5,9.1 93.1,9.1 V 8.6 h 4.3 v 0.5 c -0.5,0 -0.7,0.2 -0.7,0.7 v 11 c 0,0.5 0.3,0.8 0.7,0.8 v 0.5 z"
   id="path2" />
<path
   class="st0"
   d="m 110.2,19.1 -0.7,3 c -0.2,0 -0.7,-0.1 -1.1,-0.1 h -8.5 v -0.5 c 0.5,0 0.7,-0.3 0.7,-0.8 V 9.9 c 0,-0.5 -0.3,-0.8 -0.7,-0.8 V 8.6 h 8.5 c 0.3,0 0.7,0 1,-0.1 l 0.6,2.9 -0.4,0.2 C 109.3,11 109,10.9 108.4,10.9 h -5 v 2.7 h 4.5 c 0.5,0 0.7,-0.3 0.7,-0.6 h 0.5 v 3.5 h -0.5 c 0,-0.4 -0.2,-0.7 -0.7,-0.7 h -4.4 v 4.1 h 4.9 c 0.6,0 1.1,-0.2 1.3,-0.8 z"
   id="path3" />
<path
   class="st0"
   d="m 129.9,9 c -0.4,0 -0.7,0.2 -0.7,0.8 v 8.8 c 0,0.5 0.1,0.9 0.2,1.3 -1.8,1.4 -3.6,2.4 -5.6,2.4 -2.2,0 -3.9,-0.7 -5.7,-2.3 0.2,-0.5 0.2,-0.9 0.2,-1.3 V 9.9 C 118.3,9.3 118,9 117.5,9 V 8.5 h 4.3 V 9 C 121.3,9 121,9.2 121,9.9 v 8.2 c 0,1.1 1,1.9 2.8,1.9 1.7,0 2.7,-0.9 2.7,-1.8 V 9.9 c 0,-0.6 -0.3,-0.8 -0.7,-0.8 V 8.6 h 4.1 z"
   id="path4" />
<path
   class="st0"
   d="m 144.7,9 c -0.4,0 -0.8,0.3 -0.8,0.7 V 22 h -2.2 c -0.1,-0.3 -0.3,-0.7 -0.5,-0.9 L 135.4,13 v 0 7.7 c 0,0.5 0.3,0.8 0.8,0.8 V 22 h -4.1 v -0.5 c 0.5,0 0.7,-0.2 0.7,-0.8 V 9.7 C 132.8,9.2 132.5,9 132.1,9 V 8.5 h 3.5 c 0.1,0.3 0.3,0.7 0.5,0.9 l 5.2,7.2 v 0 -6.9 C 141.3,9.3 141.1,9 140.6,9 V 8.5 h 4.1 z"
   id="path5" />
<path
   class="st0"
   d="m 151.5,22.1 h -4.3 v -0.5 c 0.4,0 0.7,-0.2 0.7,-0.8 V 9.8 C 147.9,9.2 147.6,9 147.2,9 V 8.5 h 4.3 V 9 c -0.5,0 -0.7,0.3 -0.7,0.8 v 10.9 c 0,0.5 0.3,0.8 0.7,0.8 z"
   id="path6" />
<path
   class="st0"
   d="m 166.6,9 c -0.4,0 -0.7,0.3 -0.9,0.9 l -3.6,10.4 c -0.1,0.3 -0.2,0.6 -0.2,0.8 0,0.2 0.1,0.3 0.3,0.3 v 0.5 h -4.5 v -0.5 c 0.3,0 0.4,-0.2 0.4,-0.3 0,-0.1 -0.1,-0.6 -0.3,-1.1 l -3.5,-9.9 C 154,9.4 153.8,9 153.4,9 V 8.5 h 4.3 V 9 c -0.3,0 -0.5,0.2 -0.5,0.4 0,0.1 0.1,0.4 0.1,0.6 l 2.9,9 v 0 l 2.7,-8.9 C 163,9.8 163,9.5 163,9.4 163,9.1 162.9,9 162.5,9 V 8.5 h 4 V 9 Z"
   id="path7" />
<path
   class="st0"
   d="m 178.8,19.1 -0.7,3 c -0.2,0 -0.7,-0.1 -1.1,-0.1 h -8.5 v -0.5 c 0.5,0 0.7,-0.3 0.7,-0.8 V 9.9 c 0,-0.5 -0.3,-0.8 -0.7,-0.8 V 8.6 h 8.5 c 0.3,0 0.7,0 1,-0.1 l 0.6,2.9 -0.4,0.2 C 177.9,11 177.6,10.9 177,10.9 h -5 v 2.7 h 4.5 c 0.5,0 0.7,-0.3 0.7,-0.6 h 0.5 v 3.5 h -0.5 c 0,-0.4 -0.2,-0.7 -0.7,-0.7 H 172 v 4.1 h 4.9 c 0.6,0 1.1,-0.2 1.3,-0.8 z"
   id="path8" />
<path
   class="st0"
   d="m 192.2,22.1 h -3.7 c -0.9,-1.7 -1.7,-3.7 -2.1,-5.1 -0.2,0 -0.4,0 -0.6,0 -0.5,0 -0.9,0 -1.4,0 v 3.8 c 0,0.6 0.3,0.8 0.8,0.8 v 0.5 h -4.3 v -0.5 c 0.4,0 0.7,-0.3 0.7,-0.8 v -11 c 0,-0.5 -0.3,-0.7 -0.7,-0.7 V 8.6 c 1.4,-0.1 3.8,-0.2 4.8,-0.2 3.9,0 6.2,1 6.2,4.1 0,2.1 -1.3,3.4 -2.8,4 0.7,1.8 1.4,3.4 2.2,4.5 0.2,0.2 0.5,0.5 1,0.5 v 0.6 z m -6.3,-11.5 c -0.4,0 -1,0 -1.5,0.1 v 4 c 0.4,0 1.2,0 1.7,0 2.1,0 3,-0.9 3,-2.1 -0.1,-1.3 -0.9,-2 -3.2,-2 z"
   id="path9" />
<path
   class="st0"
   d="m 198.8,22.4 c -1.6,0 -2.6,-0.3 -3.2,-0.3 -0.4,0 -0.7,0.1 -1,0.3 l -0.6,-3.9 0.6,-0.2 c 0.3,0.9 1.3,1.9 3.8,1.9 2.1,0 2.8,-0.8 2.8,-1.8 0,-0.7 -0.6,-1.3 -1.6,-1.7 l -2.2,-0.9 c -1.6,-0.6 -3,-1.7 -3,-3.8 0,-2.6 2.3,-3.8 4.8,-3.8 1.4,0 2.3,0.3 2.8,0.3 0.5,0 0.7,-0.1 0.9,-0.2 l 0.5,3.4 -0.7,0.1 c -0.5,-0.8 -1.5,-1.5 -3.3,-1.5 -1.7,0 -2.1,0.7 -2.1,1.4 0,0.6 0.4,1 1.5,1.4 l 2.3,0.9 c 1.6,0.6 3.1,1.8 3.1,4.1 0,2.7 -2,4.3 -5.4,4.3 z"
   id="path10" />
<path
   class="st0"
   d="m 210.7,22.1 h -4.3 v -0.5 c 0.4,0 0.7,-0.2 0.7,-0.8 V 9.8 C 207.1,9.2 206.8,9 206.4,9 V 8.5 h 4.3 V 9 C 210.2,9 210,9.3 210,9.8 v 10.9 c 0,0.5 0.3,0.8 0.7,0.8 z"
   id="path11" />
<path
   class="st0"
   d="m 225.2,11.3 -0.5,0.2 c -0.2,-0.5 -0.6,-0.7 -1.5,-0.7 h -3 v 9.9 c 0,0.6 0.3,0.8 0.8,0.8 V 22 h -4.4 v -0.5 c 0.5,0 0.8,-0.2 0.8,-0.8 v -9.9 h -2.9 c -0.9,0 -1.3,0.2 -1.5,0.7 l -0.5,-0.2 0.6,-2.9 c 0.3,0.1 0.6,0.1 1.2,0.1 h 9.2 c 0.3,0 0.7,0 1,-0.1 z"
   id="path12" />
<path
   class="st0"
   d="m 239.2,9 c -0.4,0 -0.8,0.3 -1.1,0.9 l -3.8,6.6 v 4.3 c 0,0.6 0.3,0.8 0.7,0.8 v 0.5 h -4.3 v -0.5 c 0.5,0 0.7,-0.2 0.7,-0.8 V 16.5 L 227.7,10 C 227.3,9.3 227.1,9.1 226.6,9.1 V 8.6 h 4.5 v 0.5 c -0.3,0 -0.4,0.2 -0.4,0.3 0,0.1 0.1,0.2 0.1,0.3 l 2.1,4.1 v 0 l 2.1,-4 c 0.1,-0.2 0.2,-0.4 0.2,-0.5 0,-0.2 -0.1,-0.3 -0.4,-0.3 V 8.5 H 239 V 9 Z"
   id="path13" />
<path
   class="st0"
   d="m 77.4,43.2 c -3.7,0 -6.8,-2.5 -6.8,-7.1 0,-4.6 3.2,-7.1 6.8,-7.1 3.8,0 6.9,2.5 6.9,7.1 0,4.3 -3,7.1 -6.9,7.1 z m 0,-11.9 c -2.1,0 -3.9,1.6 -3.9,4.7 0,3 1.8,4.8 3.9,4.8 2.1,0 3.9,-1.6 3.9,-4.7 0,-3.2 -1.8,-4.8 -3.9,-4.8 z"
   id="path14" />
<path
   class="st0"
   d="m 96.7,32.1 -0.4,0.2 C 96,31.8 95.7,31.6 95,31.6 h -4.8 v 2.8 h 4.5 c 0.5,0 0.7,-0.3 0.7,-0.6 h 0.5 v 3.5 h -0.5 c 0,-0.4 -0.2,-0.7 -0.7,-0.7 h -4.5 v 4.8 c 0,0.6 0.3,0.9 0.8,0.9 v 0.5 h -4.4 v -0.5 c 0.4,0 0.7,-0.3 0.7,-0.9 V 30.6 C 87.3,30 87,29.8 86.6,29.8 v -0.5 h 8.3 c 0.7,0 0.9,-0.1 1.3,-0.1 z"
   id="path15" />
<path
   class="st0"
   d="m 116.2,32.1 -0.5,0.2 c -0.2,-0.5 -0.6,-0.7 -1.5,-0.7 h -3 v 9.9 c 0,0.6 0.3,0.8 0.8,0.8 v 0.5 h -4.4 v -0.5 c 0.5,0 0.8,-0.2 0.8,-0.8 v -9.9 h -2.9 c -0.9,0 -1.3,0.2 -1.5,0.7 l -0.5,-0.2 0.6,-2.9 c 0.3,0.1 0.6,0.1 1.2,0.1 h 9.2 c 0.3,0 0.7,0 1,-0.1 z"
   id="path16" />
<path
   class="st0"
   d="m 128.4,39.9 -0.7,3 c -0.2,0 -0.7,-0.1 -1.1,-0.1 h -8.5 v -0.5 c 0.5,0 0.7,-0.3 0.7,-0.8 V 30.6 c 0,-0.5 -0.3,-0.8 -0.7,-0.8 v -0.5 h 8.5 c 0.3,0 0.7,0 1,-0.1 l 0.6,2.9 -0.4,0.2 c -0.3,-0.6 -0.6,-0.7 -1.2,-0.7 h -5 v 2.7 h 4.5 c 0.5,0 0.7,-0.3 0.7,-0.6 h 0.5 v 3.5 h -0.5 c 0,-0.4 -0.2,-0.7 -0.7,-0.7 h -4.5 v 4.1 h 4.9 c 0.6,0 1.1,-0.2 1.3,-0.8 z"
   id="path17" />
<path
   class="st0"
   d="m 142.2,42.8 h -4.7 v -0.5 c 0.3,0 0.4,-0.1 0.4,-0.3 0,-0.1 0,-0.2 -0.2,-0.4 l -1.8,-3.3 v 0 l -1.8,3.3 c -0.1,0.1 -0.2,0.3 -0.2,0.4 0,0.2 0.1,0.3 0.4,0.3 v 0.5 H 130 v -0.5 c 0.5,0 0.8,-0.2 1.2,-0.8 l 3.2,-5.4 -3.2,-5.3 c -0.4,-0.7 -0.7,-0.9 -1.2,-0.9 v -0.5 h 4.6 v 0.5 c -0.3,0 -0.4,0.1 -0.4,0.3 0,0.1 0.1,0.3 0.2,0.5 l 1.9,3.3 v 0 l 1.8,-3.4 c 0.1,-0.2 0.1,-0.3 0.1,-0.4 0,-0.2 -0.1,-0.3 -0.4,-0.3 v -0.5 h 4.2 v 0.5 c -0.5,0 -0.8,0.2 -1.2,0.9 l -3.3,5.5 3.3,5.4 c 0.3,0.5 0.6,0.7 1.2,0.7 v 0.4 z"
   id="path18" />
<path
   class="st0"
   d="m 157.1,42.8 h -4.3 v -0.5 c 0.4,0 0.5,-0.2 0.5,-0.4 0,-0.1 0,-0.3 -0.1,-0.5 l -0.3,-0.8 c -0.6,0.1 -1.8,0.2 -2.6,0.2 -0.9,0 -1.9,-0.1 -2.6,-0.2 l -0.3,0.9 c 0,0.2 -0.1,0.3 -0.1,0.4 0,0.2 0.1,0.3 0.5,0.4 v 0.5 h -4 v -0.5 c 0.3,0 0.6,-0.2 0.9,-0.9 l 3.6,-10.6 c 0.1,-0.2 0.1,-0.4 0.1,-0.5 0,-0.2 -0.1,-0.4 -0.3,-0.4 v -0.5 h 4.5 v 0.5 c -0.3,0 -0.4,0.2 -0.4,0.3 0,0.1 0.1,0.4 0.2,0.6 l 3.7,10.6 c 0.2,0.6 0.5,0.9 0.9,0.9 v 0.5 z m -6.8,-10.5 v 0 l -1.8,6.1 c 0.6,0.1 1.3,0.2 1.9,0.2 0.6,0 1.3,-0.1 1.9,-0.2 z"
   id="path19" />
<path
   class="st0"
   d="m 163.6,43.2 c -1.6,0 -2.6,-0.3 -3.2,-0.3 -0.4,0 -0.7,0.1 -1,0.3 l -0.6,-3.9 0.6,-0.2 c 0.3,0.9 1.3,1.9 3.8,1.9 2.1,0 2.8,-0.8 2.8,-1.8 0,-0.7 -0.6,-1.3 -1.6,-1.7 l -2.2,-0.9 c -1.6,-0.6 -3,-1.7 -3,-3.8 0,-2.6 2.3,-3.8 4.8,-3.8 1.4,0 2.3,0.3 2.8,0.3 0.5,0 0.7,-0.1 0.9,-0.2 l 0.5,3.4 -0.7,0.1 c -0.5,-0.8 -1.5,-1.5 -3.3,-1.5 -1.7,0 -2.1,0.7 -2.1,1.4 0,0.6 0.4,1 1.5,1.4 l 2.3,0.9 c 1.6,0.6 3.1,1.8 3.1,4.1 0,2.7 -2,4.3 -5.4,4.3 z"
   id="path20" />
<path
   class="st0"
   d="m 189.1,42.8 h -4.3 v -0.5 c 0.4,0 0.5,-0.2 0.5,-0.4 0,-0.1 0,-0.3 -0.1,-0.5 l -0.3,-0.8 c -0.6,0.1 -1.8,0.2 -2.6,0.2 -0.9,0 -1.9,-0.1 -2.6,-0.2 l -0.3,0.9 c 0,0.2 -0.1,0.3 -0.1,0.4 0,0.2 0.1,0.3 0.5,0.4 v 0.5 h -4 v -0.5 c 0.3,0 0.6,-0.2 0.9,-0.9 l 3.6,-10.6 c 0.1,-0.2 0.1,-0.4 0.1,-0.5 0,-0.2 -0.1,-0.4 -0.3,-0.4 v -0.5 h 4.5 v 0.5 c -0.3,0 -0.4,0.2 -0.4,0.3 0,0.1 0.1,0.4 0.2,0.6 l 3.7,10.6 c 0.2,0.6 0.5,0.9 0.9,0.9 v 0.5 z m -6.8,-10.5 v 0 l -1.8,6.1 c 0.6,0.1 1.3,0.2 1.9,0.2 0.6,0 1.3,-0.1 1.9,-0.2 z"
   id="path21" />
<path
   class="st0"
   d="m 201.1,32.1 -0.5,0.2 c -0.2,-0.5 -0.6,-0.7 -1.5,-0.7 h -3 v 9.9 c 0,0.6 0.3,0.8 0.8,0.8 v 0.5 h -4.4 v -0.5 c 0.5,0 0.8,-0.2 0.8,-0.8 v -9.9 h -2.9 c -0.9,0 -1.3,0.2 -1.5,0.7 l -0.5,-0.2 0.6,-2.9 c 0.3,0.1 0.6,0.1 1.2,0.1 h 9.2 c 0.3,0 0.7,0 1,-0.1 z"
   id="path22" />
<path
   class="st0"
   d="m 213.2,43 c -1.7,0 -3.9,-0.1 -5,-0.2 v -0.5 c 0.4,0 0.7,-0.2 0.7,-0.7 v -11 c 0,-0.6 -0.3,-0.8 -0.7,-0.8 v -0.5 c 1.3,-0.1 3.1,-0.1 5.2,-0.1 5.1,0 7.2,2.4 7.2,6.8 0,3.9 -2,7 -7.4,7 z m 0,-11.6 c -0.6,0 -1.1,0 -1.5,0 v 9.2 c 0.4,0 0.9,0 1.5,0 2.9,0 4.5,-1.9 4.5,-4.8 0,-2.8 -1.7,-4.4 -4.5,-4.4 z"
   id="path23" />
<path
   class="st0"
   d="m 235.1,42.8 h -4.3 v -0.5 c 0.4,0 0.5,-0.2 0.5,-0.4 0,-0.1 0,-0.3 -0.1,-0.5 l -0.3,-0.8 c -0.6,0.1 -1.8,0.2 -2.6,0.2 -0.8,0 -1.9,-0.1 -2.6,-0.2 l -0.3,0.9 c 0,0.2 -0.1,0.3 -0.1,0.4 0,0.2 0.1,0.3 0.5,0.4 v 0.5 h -4 v -0.5 c 0.3,0 0.6,-0.2 0.9,-0.9 l 3.6,-10.6 c 0.1,-0.2 0.1,-0.4 0.1,-0.5 0,-0.2 -0.1,-0.4 -0.3,-0.4 v -0.5 h 4.5 v 0.5 c -0.3,0 -0.4,0.2 -0.4,0.3 0,0.1 0.1,0.4 0.2,0.6 l 3.7,10.6 c 0.2,0.6 0.5,0.9 0.9,0.9 v 0.5 z m -6.9,-10.5 v 0 l -1.8,6.1 c 0.6,0.1 1.3,0.2 1.9,0.2 0.6,0 1.3,-0.1 1.9,-0.2 z"
   id="path24" />
<path
   class="st0"
   d="m 247.2,39.9 -0.7,3 c -0.3,0 -0.7,-0.1 -1.3,-0.1 h -8.3 v -0.5 c 0.5,0 0.7,-0.2 0.7,-0.8 V 30.6 c 0,-0.5 -0.3,-0.8 -0.7,-0.8 v -0.5 h 4.4 v 0.5 c -0.5,0 -0.8,0.3 -0.8,0.8 v 9.9 h 5 c 0.7,0 0.9,-0.2 1.2,-0.8 z"
   id="path25" />
<path
   class="st0"
   d="m 259.6,39.9 -0.7,3 c -0.3,0 -0.7,-0.1 -1.3,-0.1 h -8.3 v -0.5 c 0.5,0 0.7,-0.2 0.7,-0.8 V 30.6 c 0,-0.5 -0.3,-0.8 -0.7,-0.8 v -0.5 h 4.4 v 0.5 c -0.5,0 -0.8,0.3 -0.8,0.8 v 9.9 h 5 c 0.7,0 0.9,-0.2 1.2,-0.8 z"
   id="path26" />
<path
   class="st0"
   d="m 274.2,42.8 h -4.3 v -0.5 c 0.4,0 0.5,-0.2 0.5,-0.4 0,-0.1 0,-0.3 -0.1,-0.5 L 270,40.6 c -0.6,0.1 -1.8,0.2 -2.6,0.2 -0.8,0 -1.9,-0.1 -2.6,-0.2 l -0.3,0.9 c 0,0.2 -0.1,0.3 -0.1,0.4 0,0.2 0.1,0.3 0.5,0.4 v 0.5 h -4 v -0.5 c 0.3,0 0.6,-0.2 0.9,-0.9 l 3.6,-10.6 c 0.1,-0.2 0.1,-0.4 0.1,-0.5 0,-0.2 -0.1,-0.4 -0.3,-0.4 v -0.5 h 4.5 v 0.5 c -0.3,0 -0.4,0.2 -0.4,0.3 0,0.1 0.1,0.4 0.2,0.6 l 3.7,10.6 c 0.2,0.6 0.5,0.9 0.9,0.9 v 0.5 z m -6.9,-10.5 v 0 l -1.8,6.1 c 0.6,0.1 1.3,0.2 1.9,0.2 0.6,0 1.3,-0.1 1.9,-0.2 z"
   id="path27" />
<path
   class="st0"
   d="m 280.7,43.2 c -1.6,0 -2.6,-0.3 -3.2,-0.3 -0.4,0 -0.7,0.1 -1,0.3 l -0.6,-3.9 0.6,-0.2 c 0.3,0.9 1.3,1.9 3.8,1.9 2.1,0 2.8,-0.8 2.8,-1.8 0,-0.7 -0.6,-1.3 -1.6,-1.7 l -2.2,-0.9 c -1.6,-0.6 -3,-1.7 -3,-3.8 0,-2.6 2.3,-3.8 4.8,-3.8 1.4,0 2.3,0.3 2.8,0.3 0.4,0 0.7,-0.1 0.9,-0.2 l 0.5,3.4 -0.7,0.1 c -0.5,-0.8 -1.5,-1.5 -3.3,-1.5 -1.7,0 -2.1,0.7 -2.1,1.4 0,0.6 0.4,1 1.5,1.4 l 2.3,0.9 c 1.6,0.6 3.1,1.8 3.1,4.1 -0.1,2.7 -2.1,4.3 -5.4,4.3 z"
   id="path28" />
<g
   id="g29"
   transform="translate(-41.5,-45.4)">
	<path
   class="st0"
   d="m 88.9,51.7 -1,0.3 c -0.5,-1 -1.1,-1.5 -2.7,-1.5 h -15 v 40.6 c 0,1.6 0.7,2.2 1.7,2.2 l 0.2,0.8 h -9.7 l 0.2,-0.8 c 1,0 1.8,-0.6 1.8,-2.2 V 50.4 h -15 c -1.5,0 -2.4,0.6 -2.8,1.5 l -1,-0.3 1.5,-6.2 c 0.4,0.1 1.2,0.2 2.4,0.2 h 35.9 c 0.7,0 1.6,-0.1 2,-0.2 z M 83.6,88.3 C 79.5,88.3 74.3,88.2 73,88 v -0.9 c 1,0 1.6,-0.7 1.6,-1.6 v -29 c 0,-1 -0.6,-1.6 -1.6,-1.6 v -1 c 1.6,-0.1 6.9,-0.3 10.5,-0.3 7.7,0 11.8,4.1 11.8,16.4 0,12.6 -3.5,18.3 -11.7,18.3 z m 1,-29.7 c -0.7,0 -3.6,0 -3.9,0 v 24.6 c 0.3,0 3.3,0 3.6,0 3.2,0 4.7,-3.7 4.7,-13.3 C 89,61 87.1,58.6 84.6,58.6 Z M 61.7,55 v -1 c 0,0 -3.9,0 -7.1,0 0,0 -0.7,0.8 -0.7,2.8 0,2 0,2.5 0,2.5 V 81 c 0,1.9 -1.4,2.9 -3,2.9 -1.5,0 -3,-0.8 -3,-2.9 V 56.8 c 0,-1.2 0.7,-1.9 1.6,-1.9 V 54 h -6.7 c 0,0 -1,0.9 -1,2.8 0,1.3 0,1.9 0,1.9 v 22.9 c 0,1.3 -0.1,2 -0.3,2.8 1.6,2 4.7,4.4 9.4,4.4 4.1,0 9.5,-0.6 10.8,-0.8 v -0.9 c -1,0 -1.6,-0.7 -1.6,-1.6 v -29 C 60,55.6 60.7,55 61.7,55 Z"
   id="path29" />
</g>
</svg>
